<svg width="512" height="512" viewBox="0 0 512 512" fill="none" xmlns="http://www.w3.org/2000/svg">
<g clip-path="url(#clip0_2006_2)">
<rect width="512" height="512" rx="256" fill="#5B4F41"/>
<path d="M512 257.556C512 386.098 418.261 492.662 295.893 512V332.505H355.392L366.72 258.243H295.893V210.058C295.893 189.733 305.792 169.944 337.493 169.944H369.685V106.714C369.685 106.714 340.459 101.692 312.533 101.692C254.208 101.692 216.107 137.256 216.107 201.623V258.221H151.275V332.483H216.107V511.979C93.76 492.619 0 386.077 0 257.556C0 115.321 114.624 0 256 0C397.376 0 512 115.299 512 257.556Z" fill="#B1A28B"/>
</g>
<defs>
<clipPath id="clip0_2006_2">
<rect width="512" height="512" rx="256" fill="white"/>
</clipPath>
</defs>
</svg>
