<svg width="78" height="78" viewBox="0 0 78 78" fill="none" xmlns="http://www.w3.org/2000/svg">
<g clip-path="url(#clip0_2014_2)">
<path d="M39 0C31.2865 0 23.7463 2.28731 17.3328 6.57269C10.9193 10.8581 5.92053 16.949 2.96872 24.0753C0.0168982 31.2017 -0.755432 39.0433 0.749392 46.6085C2.25422 54.1738 5.9686 61.1229 11.4229 66.5772C16.8771 72.0314 23.8262 75.7458 31.3915 77.2506C38.9568 78.7554 46.7984 77.9831 53.9247 75.0313C61.051 72.0795 67.142 67.0808 71.4273 60.6672C75.7127 54.2537 78 46.7135 78 39C77.9888 28.66 73.8763 18.7467 66.5648 11.4352C59.2533 4.12369 49.34 0.0111835 39 0ZM39 71.5C32.5721 71.5 26.2886 69.5939 20.944 66.0228C15.5994 62.4516 11.4338 57.3758 8.97393 51.4372C6.51408 45.4986 5.87048 38.9639 7.1245 32.6596C8.37852 26.3552 11.4738 20.5642 16.019 16.019C20.5643 11.4738 26.3552 8.3785 32.6596 7.12448C38.964 5.87046 45.4986 6.51407 51.4372 8.97392C57.3758 11.4338 62.4516 15.5994 66.0228 20.944C69.5939 26.2886 71.5 32.5721 71.5 39C71.4906 47.6166 68.0634 55.8776 61.9705 61.9705C55.8777 68.0634 47.6166 71.4905 39 71.5Z" fill="white"/>
<path d="M39 32.5H35.75C34.888 32.5 34.0614 32.8424 33.4519 33.4519C32.8424 34.0614 32.5 34.888 32.5 35.75C32.5 36.612 32.8424 37.4386 33.4519 38.0481C34.0614 38.6576 34.888 39 35.75 39H39V58.5C39 59.362 39.3424 60.1886 39.9519 60.7981C40.5614 61.4076 41.388 61.75 42.25 61.75C43.112 61.75 43.9386 61.4076 44.5481 60.7981C45.1576 60.1886 45.5 59.362 45.5 58.5V39C45.5 37.2761 44.8152 35.6228 43.5962 34.4038C42.3772 33.1848 40.7239 32.5 39 32.5Z" fill="white"/>
<path d="M39 26C41.6924 26 43.875 23.8174 43.875 21.125C43.875 18.4326 41.6924 16.25 39 16.25C36.3076 16.25 34.125 18.4326 34.125 21.125C34.125 23.8174 36.3076 26 39 26Z" fill="white"/>
</g>
<defs>
<clipPath id="clip0_2014_2">
<rect width="78" height="78" fill="white"/>
</clipPath>
</defs>
</svg>
