<svg width="24" height="24" viewBox="0 0 24 24" fill="none" xmlns="http://www.w3.org/2000/svg">
<g clip-path="url(#clip0_2018_2)">
<path d="M24 16V21.5C24 22.879 22.879 24 21.5 24H2.5C1.121 24 0 22.879 0 21.5V16H1V21.5C1 22.327 1.673 23 2.5 23H21.5C22.327 23 23 22.327 23 21.5V16H24ZM11.999 19C12.472 19 12.916 18.815 13.247 18.484L17.86 13.952L17.159 13.239L12.543 17.774C12.531 17.786 12.5 0 12.5 0H11.5V17.804C11.486 17.792 6.862 13.219 6.862 13.219L6.157 13.928L10.747 18.482C11.081 18.816 11.526 19 11.999 19Z" fill="white"/>
</g>
<defs>
<clipPath id="clip0_2018_2">
<rect width="24" height="24" fill="white"/>
</clipPath>
</defs>
</svg>
