<svg width="80" height="80" viewBox="0 0 80 80" fill="none" xmlns="http://www.w3.org/2000/svg">
<rect width="80" height="80" rx="40" fill="#B1A28B"/>
<path fill-rule="evenodd" clip-rule="evenodd" d="M8 40C8 22.3 22.3 8 40 8C57.7 8 72 22.3 72 40C72 57.7 57.7 72 40 72H37.4V71.9C21 70.6 8 56.8 8 40ZM40.8 66.8C55.2 66.4 66.8 54.5 66.8 40C66.8 25.2 54.8 13.2 40 13.2C25.2 13.2 13.2 25.2 13.2 40C13.2 54.8 25.2 66.8 40 66.8H40.8Z" fill="#5B4F41"/>
<path fill-rule="evenodd" clip-rule="evenodd" d="M26.9999 16.6C26.5999 16.5 26.2999 16.4 25.8999 16.2L27.5999 11.3C27.7999 11.4 27.9999 11.4 28.3999 11.5C28.9999 11.7 29.6999 11.9 30.0999 12.1C30.1999 12.1 30.2999 12.2 30.4999 12.2C31.1999 12.5 31.9999 12.8 32.6999 13.1L32.7999 13.2C33.0999 13.4 33.5999 13.6 33.9999 13.8C34.1999 13.9 34.3999 14 34.5999 14.1H34.6999H34.7999C34.8999 14.2 35.1999 14.3 35.4999 14.5H35.5999C35.5999 14.5 35.6999 14.5 35.6999 14.6C35.6999 14.6 35.7999 14.6 35.7999 14.7C35.7999 14.7 35.7999 14.7 35.8999 14.7C35.8999 14.7 35.8999 14.7 35.9999 14.7C35.9999 14.7 36.0999 14.7 36.0999 14.8C36.2999 14.9 36.5999 15.1 36.7999 15.2C37.0999 15.4 37.4999 15.6 37.7999 15.8C38.0999 16 38.4999 16.3 38.7999 16.4L38.8999 16.5C39.0999 16.6 39.2999 16.7 39.3999 16.8C39.5999 16.9 39.7999 17.1 39.9999 17.2C40.0999 17.3 40.1999 17.3 40.1999 17.4C40.2999 17.5 40.3999 17.5 40.4999 17.6C40.5999 17.7 40.5999 17.7 40.6999 17.7C40.6999 17.7 40.6999 17.7 40.7999 17.7H40.8999H40.9999C43.8999 19.9 46.3999 22.4 48.5999 25.3C50.9999 28.5 52.8999 32 54.1999 35.8C58.0999 46.8 56.9999 59.4 50.7999 69.4L46.3999 66.7C51.6999 58.1 52.6999 47.1 49.2999 37.5C48.1999 34.3 46.4999 31.2 44.3999 28.5C42.4999 26 40.2999 23.8 37.7999 21.9C37.6999 21.8 37.4999 21.7 37.3999 21.6C37.2999 21.5 37.1999 21.4 37.0999 21.4C36.9999 21.3 36.9999 21.3 36.8999 21.2C36.6999 21.1 36.5999 20.9 36.3999 20.8C36.2999 20.7 36.1999 20.7 36.1999 20.7H36.0999V21C35.9999 20.9 35.7999 20.8 35.6999 20.8C35.4999 20.6 35.2999 20.5 35.0999 20.4L34.9999 20.3L34.8999 20.2C34.8999 20.2 34.7999 20.2 34.6999 20.1C34.5999 20 34.3999 19.9 34.1999 19.8C33.9999 19.7 33.6999 19.5 33.5999 19.4C33.4999 19.4 33.3999 19.3 33.3999 19.3L33.2999 19.2C33.1999 19.2 33.1999 19.1 33.0999 19.1C33.0999 19.1 32.9999 19 32.8999 19C32.7999 18.9 32.6999 18.9 32.4999 18.8C32.2999 18.7 32.0999 18.6 31.8999 18.5C31.4999 18.3 31.0999 18.1 30.6999 18L30.5999 17.9C30.0999 17.7 29.4999 17.5 28.8999 17.2C28.5999 17.1 28.4999 17 28.2999 17C27.8999 16.8 27.4999 16.7 26.9999 16.6Z" fill="#5B4F41"/>
<path fill-rule="evenodd" clip-rule="evenodd" d="M38 28.9C45.8 27.5 53.1 23.1 58 16.8L62.1 20C56.3 27.3 48 32.4 38.9 34C34.4 34.8 29.7 34.8 25.2 34C20.7 33.2 16.3 31.6 12.3 29.2L15 24.8C18.4 26.8 22.2 28.3 26.1 29C30 29.6 34 29.6 38 28.9Z" fill="#5B4F41"/>
<path fill-rule="evenodd" clip-rule="evenodd" d="M24.1001 66.3C28.5001 43.7 51.6001 31.2 70.4001 36.3L69.0001 41.3C53.0001 36.9 33.0001 47.7 29.1001 67.3L24.1001 66.3Z" fill="#5B4F41"/>
</svg>
