<svg width="24" height="24" viewBox="0 0 24 24" fill="none" xmlns="http://www.w3.org/2000/svg">
<path d="M21.5 1H2.5C1.122 1 0 2.122 0 3.5V23H24V3.5C24 2.122 22.878 1 21.5 1ZM23 3.5V7H16.832L21.802 2.03C22.485 2.17 23 2.776 23 3.5ZM15.582 2H20.418L15.459 6.959L15.5 7H10.582L15.582 2ZM9.25 7H4.332L9.332 2H14.168L9.209 6.959L9.25 7ZM2.5 2H7.918L2.918 7H1V3.5C1 2.673 1.673 2 2.5 2ZM1 22V8H23V22H1ZM9 19.383L16.305 15L9 10.617V19.384V19.383ZM10 12.383L14.362 15L10 17.617V12.383Z" fill="#5B4F41"/>
</svg>
