<svg width="24" height="24" viewBox="0 0 24 24" fill="none" xmlns="http://www.w3.org/2000/svg">
<path d="M21 12.424V11C21 6.038 16.963 2 12 2C7.037 2 3 6.038 3 11V12.424C1.237 13.198 0 14.955 0 17C0 19.757 2.243 22 5 22H7V12H5C4.658 12 4.323 12.035 4 12.101V11C4 6.589 7.589 3 12 3C16.411 3 20 6.589 20 11V12.101C19.677 12.035 19.342 12 19 12H17V22H19C21.757 22 24 19.757 24 17C24 14.955 22.763 13.198 21 12.424ZM6 13V21H5C2.794 21 1 19.206 1 17C1 14.794 2.794 13 5 13H6ZM19 21H18V13H19C21.206 13 23 14.794 23 17C23 19.206 21.206 21 19 21ZM14.193 17H16V18H14.807L13.172 21.223L10.835 16.023L9.788 18H8V17H9.187L10.91 13.747L13.227 18.905L14.194 17H14.193Z" fill="#5B4F41"/>
</svg>
