<svg width="24" height="24" viewBox="0 0 24 24" fill="none" xmlns="http://www.w3.org/2000/svg">
<g clip-path="url(#clip0_2012_6)">
<path d="M12 0C5.383 0 0 5.383 0 12C0 18.617 5.383 24 12 24C18.617 24 24 18.617 24 12C24 5.383 18.617 0 12 0ZM14.743 17H9.245L6.34 11.84L9.29 7H14.748L17.788 12.005L14.744 17H14.743ZM15.918 7H21.796C22.565 8.501 22.999 10.201 22.999 12C22.999 13.729 22.598 15.365 21.884 16.823L15.918 7ZM21.214 6H9.899L12.923 1.039C16.392 1.329 19.407 3.235 21.214 6ZM11.775 1.003L5.778 10.842L2.93 5.783C4.876 2.954 8.108 1.077 11.775 1.003ZM2.332 6.757L8.098 17H2.203C1.434 15.499 1 13.799 1 12C1 10.103 1.483 8.316 2.332 6.757ZM2.785 18H14.134L11.108 22.964C7.626 22.683 4.597 20.774 2.785 18ZM12.258 22.997L18.372 12.967L21.325 17.828C19.421 20.863 16.078 22.909 12.258 22.997Z" fill="#5B4F41"/>
</g>
<defs>
<clipPath id="clip0_2012_6">
<rect width="24" height="24" fill="white"/>
</clipPath>
</defs>
</svg>
